<mxfile host="app.diagrams.net" modified="2024-05-19T23:38:44.754Z" agent="Mozilla/5.0 (Macintosh; Intel Mac OS X 10_15_7) AppleWebKit/537.36 (KHTML, like Gecko) Chrome/125.0.0.0 Safari/537.36" etag="eq8y-pNUeo5LzL1CCNaA" version="24.3.1" type="device">
  <diagram name="Page-1" id="tgNxxkgvDQe6PFJW475n">
    <mxGraphModel dx="375" dy="400" grid="0" gridSize="10" guides="1" tooltips="1" connect="1" arrows="1" fold="1" page="0" pageScale="1" pageWidth="850" pageHeight="1100" math="0" shadow="0">
      <root>
        <mxCell id="0" />
        <mxCell id="1" parent="0" />
        <mxCell id="qtdXdOWbCcAL2jRGvZvy-3" value="" style="rounded=1;whiteSpace=wrap;html=1;" vertex="1" parent="1">
          <mxGeometry x="55.25" y="59" width="320.75" height="356" as="geometry" />
        </mxCell>
        <mxCell id="qtdXdOWbCcAL2jRGvZvy-4" value="" style="rounded=0;whiteSpace=wrap;html=1;" vertex="1" parent="1">
          <mxGeometry x="59" y="251" width="297" height="20" as="geometry" />
        </mxCell>
        <mxCell id="qtdXdOWbCcAL2jRGvZvy-6" value="Decadent Arrangements" style="text;strokeColor=none;fillColor=none;html=1;align=center;verticalAlign=middle;whiteSpace=wrap;rounded=0;fontSize=16;" vertex="1" parent="1">
          <mxGeometry x="85.13" y="69" width="241" height="30" as="geometry" />
        </mxCell>
        <mxCell id="qtdXdOWbCcAL2jRGvZvy-7" value="Home" style="text;strokeColor=none;fillColor=none;html=1;align=center;verticalAlign=middle;whiteSpace=wrap;rounded=0;fontSize=16;" vertex="1" parent="1">
          <mxGeometry x="59" y="252" width="56" height="18" as="geometry" />
        </mxCell>
        <mxCell id="qtdXdOWbCcAL2jRGvZvy-8" value="Menu" style="text;strokeColor=none;fillColor=none;html=1;align=center;verticalAlign=middle;whiteSpace=wrap;rounded=0;fontSize=16;" vertex="1" parent="1">
          <mxGeometry x="126" y="246" width="60" height="30" as="geometry" />
        </mxCell>
        <mxCell id="qtdXdOWbCcAL2jRGvZvy-9" value="Order" style="text;strokeColor=none;fillColor=none;html=1;align=center;verticalAlign=middle;whiteSpace=wrap;rounded=0;fontSize=16;" vertex="1" parent="1">
          <mxGeometry x="201" y="246" width="60" height="30" as="geometry" />
        </mxCell>
        <mxCell id="qtdXdOWbCcAL2jRGvZvy-10" value="About Us" style="text;strokeColor=none;fillColor=none;html=1;align=center;verticalAlign=middle;whiteSpace=wrap;rounded=0;fontSize=16;" vertex="1" parent="1">
          <mxGeometry x="274" y="246" width="77.5" height="30" as="geometry" />
        </mxCell>
        <mxCell id="qtdXdOWbCcAL2jRGvZvy-11" value="" style="ellipse;whiteSpace=wrap;html=1;aspect=fixed;" vertex="1" parent="1">
          <mxGeometry x="89" y="73" width="22" height="22" as="geometry" />
        </mxCell>
        <mxCell id="qtdXdOWbCcAL2jRGvZvy-15" value="" style="verticalLabelPosition=bottom;verticalAlign=top;html=1;shape=mxgraph.basic.patternFillRect;fillStyle=diag;step=5;fillStrokeWidth=0.2;fillStrokeColor=#dddddd;" vertex="1" parent="1">
          <mxGeometry x="100.13" y="140" width="211" height="60" as="geometry" />
        </mxCell>
        <mxCell id="qtdXdOWbCcAL2jRGvZvy-16" value="(Text over image)" style="text;strokeColor=none;fillColor=none;html=1;align=center;verticalAlign=middle;whiteSpace=wrap;rounded=0;fontSize=16;" vertex="1" parent="1">
          <mxGeometry x="169" y="137" width="67" height="63" as="geometry" />
        </mxCell>
      </root>
    </mxGraphModel>
  </diagram>
</mxfile>
